<svg width="40" height="40" viewBox="0 0 40 40" fill="none" xmlns="http://www.w3.org/2000/svg">
<rect x="4" y="4" width="32" height="32" rx="16" fill="#00875A"/>
<path d="M15.2662 25.168C14.5568 25.168 13.9222 25.0467 13.3622 24.804C12.8115 24.5613 12.3728 24.2067 12.0462 23.74C11.7288 23.2733 11.5655 22.7087 11.5562 22.046H13.5582C13.5675 22.3353 13.6422 22.5967 13.7822 22.83C13.9222 23.0633 14.1135 23.25 14.3562 23.39C14.6082 23.5207 14.9068 23.586 15.2522 23.586C15.5508 23.586 15.8075 23.5393 16.0222 23.446C16.2462 23.3433 16.4188 23.2033 16.5402 23.026C16.6615 22.8487 16.7222 22.6387 16.7222 22.396C16.7222 22.116 16.6522 21.8827 16.5122 21.696C16.3815 21.5093 16.1948 21.3507 15.9522 21.22C15.7188 21.0893 15.4435 20.9727 15.1262 20.87C14.8182 20.758 14.4915 20.6413 14.1462 20.52C13.3715 20.268 12.7788 19.932 12.3682 19.512C11.9668 19.092 11.7662 18.5367 11.7662 17.846C11.7662 17.258 11.9062 16.754 12.1862 16.334C12.4755 15.914 12.8722 15.592 13.3762 15.368C13.8802 15.144 14.4542 15.032 15.0982 15.032C15.7608 15.032 16.3395 15.1487 16.8342 15.382C17.3382 15.606 17.7348 15.9327 18.0242 16.362C18.3228 16.7913 18.4768 17.2953 18.4862 17.874H16.4702C16.4608 17.6593 16.3955 17.4587 16.2742 17.272C16.1622 17.076 16.0035 16.922 15.7982 16.81C15.5928 16.6887 15.3502 16.628 15.0702 16.628C14.8275 16.6187 14.6035 16.656 14.3982 16.74C14.2022 16.824 14.0435 16.95 13.9222 17.118C13.8102 17.2767 13.7542 17.4773 13.7542 17.72C13.7542 17.9533 13.8102 18.1493 13.9222 18.308C14.0435 18.4667 14.2068 18.6067 14.4122 18.728C14.6175 18.84 14.8602 18.9473 15.1402 19.05C15.4202 19.1433 15.7235 19.2413 16.0502 19.344C16.5355 19.512 16.9835 19.7127 17.3942 19.946C17.8048 20.17 18.1315 20.464 18.3742 20.828C18.6168 21.192 18.7382 21.6727 18.7382 22.27C18.7382 22.7833 18.6028 23.2593 18.3322 23.698C18.0615 24.1367 17.6695 24.4913 17.1562 24.762C16.6522 25.0327 16.0222 25.168 15.2662 25.168ZM20.1414 25V15.2H23.4174C24.5561 15.2 25.4941 15.4053 26.2314 15.816C26.9781 16.2173 27.5287 16.7867 27.8834 17.524C28.2474 18.252 28.4294 19.1107 28.4294 20.1C28.4294 21.0893 28.2474 21.9527 27.8834 22.69C27.5287 23.418 26.9827 23.9873 26.2454 24.398C25.5081 24.7993 24.5654 25 23.4174 25H20.1414ZM22.0314 23.376H23.3194C24.1221 23.376 24.7521 23.2453 25.2094 22.984C25.6761 22.7227 26.0074 22.3493 26.2034 21.864C26.3994 21.3693 26.4974 20.7813 26.4974 20.1C26.4974 19.4093 26.3994 18.8213 26.2034 18.336C26.0074 17.8413 25.6761 17.4633 25.2094 17.202C24.7521 16.9407 24.1221 16.81 23.3194 16.81H22.0314V23.376Z" fill="white"/>
</svg>
